<svg xmlns="http://www.w3.org/2000/svg" viewBox="0 0 14 8"><defs><style>.cls-1{fill:#077f83;fill-rule:evenodd;}</style></defs><title>Pin</title><g id="Warstwa_2" data-name="Warstwa 2"><g id="Warstwa_1-2" data-name="Warstwa 1"><path class="cls-1" d="M13.79,1.25a.44.44,0,0,0-.43,0,3,3,0,0,0-1.21,1.06L8,2A3.5,3.5,0,0,0,5.53,0a.42.42,0,0,0-.37.1A.48.48,0,0,0,5,.47V3H0V5H5V7.53a.51.51,0,0,0,.13.33l0,0a.42.42,0,0,0,.37.1,3.14,3.14,0,0,0,1-.4A3.46,3.46,0,0,0,8,6l4.17-.27a3,3,0,0,0,1.21,1.06.44.44,0,0,0,.43,0A.46.46,0,0,0,14,6.36V1.64A.46.46,0,0,0,13.79,1.25Z"/></g></g></svg>